<?xml version="1.0" encoding="utf-8"?>
<!-- Generator: Adobe Illustrator 19.0.0, SVG Export Plug-In . SVG Version: 6.00 Build 0)  -->
<svg version="1.1" id="Layer_1" xmlns="http://www.w3.org/2000/svg" xmlns:xlink="http://www.w3.org/1999/xlink" x="0px" y="0px"
	 viewBox="0 0 18 18" style="enable-background:new 0 0 18 18;" xml:space="preserve">
<style type="text/css">
	.st0{fill:#D41D1D;}
</style>
<g id="XMLID_23_">
	<g id="XMLID_24_">
		<path id="XMLID_25_" class="st0" d="M9.5,7.2c-1.3,0-2.3,1-2.3,2.3c0,1.3,1,2.3,2.3,2.3c1.3,0,2.3-1,2.3-2.3
			C11.8,8.2,10.8,7.2,9.5,7.2z M9.5,10.9c-0.8,0-1.4-0.6-1.4-1.4s0.6-1.4,1.4-1.4c0.8,0,1.4,0.6,1.4,1.4S10.3,10.9,9.5,10.9z"/>
	</g>
</g>
<g id="XMLID_12_">
	<g id="XMLID_13_">
		<path id="XMLID_14_" class="st0" d="M17.9,5.5c0.2-1.2,0-2.3-0.6-3.1c0.1-0.2,0.1-0.4,0.1-0.6c0-0.9-0.7-1.6-1.6-1.6
			c-0.6,0-1.1,0.3-1.3,0.8C13.2,1,11.4,1.5,9.5,2.6C6.4,0.7,3.5,0.5,2,2C1.4,2.7,1,3.6,1,4.7C0.5,4.9,0.1,5.5,0.1,6.1
			c0,0.9,0.7,1.6,1.6,1.6c0,0,0,0,0,0c0.2,0.6,0.5,1.2,0.9,1.8c-1.8,3.2-2,6-0.6,7.5c0.7,0.7,1.6,1,2.7,1c1.4,0,3.1-0.5,4.8-1.5
			c1.8,1,3.4,1.5,4.8,1.5c1.1,0,2-0.3,2.7-1c1.5-1.5,1.3-4.3-0.6-7.5C17.3,8.1,17.8,6.8,17.9,5.5z M16,1.1c0.4,0,0.7,0.3,0.7,0.7
			S16.3,2.5,16,2.5c-0.4,0-0.7-0.3-0.7-0.7S15.6,1.1,16,1.1z M14.4,1.9c0.1,0.8,0.7,1.4,1.5,1.4c0.3,0,0.6-0.1,0.8-0.2
			c0.3,0.6,0.4,1.4,0.3,2.3c-0.1,1-0.5,2.1-1.1,3.3c-0.7-1.1-1.5-2.1-2.5-3.1c-1-1-2-1.8-3.1-2.5C11.9,2.3,13.3,1.9,14.4,1.9z
			 M1.6,6.8C1.3,6.8,1,6.5,1,6.1c0-0.4,0.3-0.7,0.7-0.7s0.7,0.3,0.7,0.7C2.3,6.5,2,6.8,1.6,6.8z M2.5,7.4c0.4-0.3,0.7-0.8,0.7-1.3
			c0-0.8-0.6-1.4-1.3-1.5c0-0.8,0.3-1.5,0.7-2c1.1-1.1,3.4-0.9,6,0.5C7.6,3.8,6.6,4.6,5.6,5.6c-1,1-1.8,2-2.5,3.1
			C2.9,8.2,2.7,7.8,2.5,7.4z M2.6,16.4c-1.1-1.1-0.9-3.4,0.5-6c0.7,1.1,1.5,2.1,2.5,3.1c1,1,2,1.8,3.1,2.5
			C6.1,17.3,3.7,17.5,2.6,16.4z M6.2,12.8c-1-1-1.9-2.1-2.6-3.3c0.7-1.1,1.6-2.3,2.6-3.3c1-1,2.1-1.9,3.3-2.6
			c1.1,0.7,2.3,1.6,3.3,2.6c1,1,1.9,2.1,2.6,3.3c-0.7,1.1-1.6,2.3-2.6,3.3c-1,1-2.1,1.9-3.3,2.6C8.4,14.7,7.3,13.8,6.2,12.8z
			 M16.4,16.4c-1.1,1.1-3.4,0.9-6-0.5c1.1-0.7,2.1-1.5,3.1-2.5c1-1,1.8-2,2.5-3.1C17.3,13,17.5,15.3,16.4,16.4z"/>
	</g>
</g>
</svg>
