<?xml version="1.0" encoding="utf-8"?>
<!-- Generator: Adobe Illustrator 19.0.0, SVG Export Plug-In . SVG Version: 6.00 Build 0)  -->
<svg version="1.1" id="Layer_1" xmlns="http://www.w3.org/2000/svg" xmlns:xlink="http://www.w3.org/1999/xlink" x="0px" y="0px"
	 viewBox="0 0 18 18" style="enable-background:new 0 0 18 18;" xml:space="preserve">
<style type="text/css">
	.st0{fill:#F36B21;}
</style>
<g id="XMLID_4_">
	<path id="XMLID_5_" class="st0" d="M14.3,1.9H13V1.7c0-1-0.8-1.8-1.7-1.8H2.7c-1,0-1.8,0.8-1.8,1.8v4.8C0.4,6.5,0,6.9,0,7.4v1.5h9
		V7.4c0-0.5-0.4-0.9-0.9-0.9H7.9V5.6c0-0.4,0.4-0.8,0.8-0.8h0.6c0.4,0,0.8,0.4,0.8,0.8v5.6c0,0.4-0.3,0.8-0.8,0.8H9v-1H0v3h2.7H9v-1
		h0.3c1,0,1.7-0.8,1.7-1.8V5.6c0-1-0.8-1.8-1.7-1.8H8.7c-1,0-1.8,0.8-1.8,1.8v0.9h0C6.5,6.5,6.1,6.8,6,7.2C5.9,6.8,5.6,6.5,5.1,6.5
		H5V3.7c0-0.4,0.4-0.8,0.8-0.8H12v10.3c0,0.4-0.3,0.8-0.8,0.8H9v1h2.3c1,0,1.7-0.8,1.7-1.8V2.9h1.2c0.4,0,0.8,0.4,0.8,0.8v11.5
		c0,0.4-0.3,0.8-0.8,0.8H9H5.8H0v1.1C0,17.6,0.4,18,0.9,18h1.2c0.4,0,0.8-0.3,0.9-0.7C3.1,17.7,3.5,18,3.9,18h1.2
		c0.4,0,0.8-0.3,0.9-0.7C6.1,17.7,6.5,18,6.9,18h1.2C8.6,18,9,17.6,9,17.1V17h5.3c1,0,1.7-0.8,1.7-1.8V3.7C16,2.7,15.2,1.9,14.3,1.9
		z M5.8,1.9C4.8,1.9,4,2.7,4,3.7v2.8H3.9C3.5,6.5,3.1,6.8,3,7.2C2.9,6.8,2.6,6.5,2.2,6.5H1.9V1.7c0-0.4,0.4-0.8,0.8-0.8h8.6
		c0.4,0,0.8,0.4,0.8,0.8v0.2H5.8z"/>
</g>
</svg>
